<svg width="20" height="16" viewBox="0 0 20 16" fill="none" xmlns="http://www.w3.org/2000/svg">
<path fill-rule="evenodd" clip-rule="evenodd" d="M18.0009 0C19.1055 0 20.0009 0.895431 20.0009 2V14C20.0009 15.1046 19.1055 16 18.0009 16H2C0.895428 16 0 15.1046 0 14V2C0 0.895431 0.895431 0 2 0H18.0009ZM2.00049 2V14H18.0005V2H2.00049Z" fill="currentColor"/>
<path d="M4.50049 9C4.22435 9 4.00049 8.77614 4.00049 8.5V7.5C4.00049 7.22386 4.22435 7 4.50049 7H15.5005C15.7766 7 16.0005 7.22386 16.0005 7.5V8.5C16.0005 8.77614 15.7766 9 15.5005 9H4.50049Z" fill="currentColor"/>
<path d="M4.50049 6C4.22435 6 4.00049 5.77614 4.00049 5.5V4.5C4.00049 4.22386 4.22435 4 4.50049 4H15.5005C15.7766 4 16.0005 4.22386 16.0005 4.5V5.5C16.0005 5.77614 15.7766 6 15.5005 6H4.50049Z" fill="currentColor"/>
<path d="M4.50049 12C4.22435 12 4.00049 11.7761 4.00049 11.5V10.5C4.00049 10.2239 4.22435 10 4.50049 10H15.5005C15.7766 10 16.0005 10.2239 16.0005 10.5V11.5C16.0005 11.7761 15.7766 12 15.5005 12H4.50049Z" fill="currentColor"/>
</svg>
