<svg width="14" height="12" viewBox="0 0 14 12" fill="none" xmlns="http://www.w3.org/2000/svg">
<path fill-rule="evenodd" clip-rule="evenodd" d="M12.334 0H1.66732C0.933984 0 0.333984 0.6 0.333984 1.33333V10.6667C0.333984 11.4 0.933984 12 1.66732 12H12.334C13.0673 12 13.6673 11.4 13.6673 10.6667V1.33333C13.6673 0.6 13.0673 0 12.334 0ZM12.334 10.6667H1.66732V1.33333H12.334V10.6667Z" fill="#3C3C3D"/>
<path fill-rule="evenodd" clip-rule="evenodd" d="M11.9406 4.94667L10.994 4L8.88065 6.11333L7.94065 5.16667L7.00065 6.10667L8.88065 8L11.9406 4.94667Z" fill="#3C3C3D"/>
<path d="M5.66732 2.66667H2.33398V4H5.66732V2.66667Z" fill="#3C3C3D"/>
<path d="M5.66732 5.33333H2.33398V6.66667H5.66732V5.33333Z" fill="#3C3C3D"/>
<path d="M5.66732 8H2.33398V9.33333H5.66732V8Z" fill="#3C3C3D"/>
</svg>
