<svg width="14" height="12" viewBox="0 0 14 12" fill="none" xmlns="http://www.w3.org/2000/svg">
<path fill-rule="evenodd" clip-rule="evenodd" d="M7.00065 6.66667H12.334C13.0673 6.66667 13.6673 7.26667 13.6673 8V9.33333C13.6673 10.0667 13.0673 10.6667 12.334 10.6667H9.66732V12H8.33399V10.6667H3.00065C2.26732 10.6667 1.66732 10.0667 1.66732 9.33333C1.66732 9.33333 1.66732 8.73333 1.66732 8C1.66732 7.26667 2.26732 6.66667 3.00065 6.66667H5.66732V5.33333C5.66732 5.33333 2.33398 5.33333 1.66732 5.33333C1.00065 5.33333 0.333986 4.66667 0.333985 4C0.333984 3.33333 0.333984 3.33333 0.333985 2.66667C0.333986 2 1.00065 1.33333 1.66732 1.33333C2.33398 1.33333 3.00065 1.33333 3.00065 1.33333V0H4.33398V1.33333C4.33398 1.33333 10.334 1.33333 11.0007 1.33333C11.6673 1.33333 12.334 2 12.334 2.66667C12.334 3.33333 12.334 3.33333 12.334 4C12.334 4.66667 11.6673 5.33333 11.0007 5.33333C10.334 5.33333 7.00065 5.33333 7.00065 5.33333V6.66667ZM3.00065 9.33333H12.334V8H3.00065V9.33333ZM1.66732 4V2.66667H11.0007V4H1.66732Z" fill="#3C3C3D"/>
</svg>
