<svg width="12" height="12" viewBox="0 0 12 12" fill="none" xmlns="http://www.w3.org/2000/svg">
<path fill-rule="evenodd" clip-rule="evenodd" d="M8.60701 3.78667L7.66035 2.84L5.54701 4.95333L4.60701 4.00667L3.66701 4.94667L5.54701 6.84L8.60701 3.78667Z" fill="#3C3C3D"/>
<path d="M8.66703 8H3.33368V9.33333H8.66703V8Z" fill="#3C3C3D"/>
<path fill-rule="evenodd" clip-rule="evenodd" d="M10.667 1.88429e-06C7.02216 2.97143e-05 4.97864 -8.65347e-06 1.33379 1.88429e-06C0.666961 3.81218e-06 0.000361174 0.666667 0.000294575 1.33334C-6.95427e-05 4.97823 -0.000125833 7.02178 0.000294575 10.6667C0.000371469 11.3333 0.666992 12 1.33379 12C4.97862 12 7.02213 12 10.667 12C11.3337 12 12.0003 11.3333 12.0003 10.6667C12.0003 7.02178 12.0003 4.97823 12.0003 1.33334C12.0003 0.666668 11.3336 -3.20559e-06 10.667 1.88429e-06ZM1.33379 1.33334V10.6667H10.667V7.33333L10.6671 1.33334H1.33379Z" fill="#3C3C3D"/>
</svg>
