<svg width="12" height="12" viewBox="0 0 12 12" fill="none" xmlns="http://www.w3.org/2000/svg">
<path fill-rule="evenodd" clip-rule="evenodd" d="M1.33333 0.666992H10.6667C11.4 0.666992 12 1.26699 12 2.00033V10.0003C12 10.7337 11.4 11.3337 10.6667 11.3337H1.33333C0.6 11.3337 0 10.7337 0 10.0003V2.00033C0 1.26699 0.6 0.666992 1.33333 0.666992ZM1.33333 6.66699H2.66667V4.66699H1.33333V6.66699ZM9.33333 6.66699H10.6667V4.66699H9.33333V6.66699ZM1.33333 10.0003H2.66667V8.00033H1.33333V10.0003ZM9.33333 10.0003H10.6667V8.00033H9.33333V10.0003ZM8 8.00033H6.66667V10.0003H8V8.00033ZM6.66667 6.66699H8V4.66699H6.66667V6.66699ZM5.33333 8.00033H4V10.0003H5.33333V8.00033ZM4 4.66699H5.33333V6.66699H4V4.66699ZM1.33333 3.33366V2.00033H10.6667V3.33366H1.33333Z" fill="#3C3C3D"/>
</svg>
