<svg width="22" height="20" viewBox="0 0 22 20" fill="none" xmlns="http://www.w3.org/2000/svg">
<path fill-rule="evenodd" clip-rule="evenodd" d="M7.00004 6C8.00004 6 9.00004 5 9.00004 4C9.00004 2.4379 9.00004 3.5621 9.00004 2C9.00004 1 8.00004 -6.38743e-06 7.00004 2.58495e-07C5.04742 1.32355e-05 4.95266 -2.13638e-06 3.00004 2.58495e-07C2.00004 1.48499e-06 0.99998 1 1.00004 2C1.00014 3.5621 1.00024 2.4379 1.00004 4C0.999917 5 2.00004 6 3.00004 6C4.95266 6 6.00004 6 7.00004 6ZM7.00004 2H3.00004V4H7.00004V2Z" fill="#3C3C3D"/>
<path fill-rule="evenodd" clip-rule="evenodd" d="M13 13C14 13 15 12 15 11C15 9.4379 15 10.5621 15 9C15 8 14 6.99999 13 7C11.0474 7.00001 10.9527 7 9.00004 7C8.00004 7 6.99998 8 7.00004 9C7.00014 10.5621 7.00024 9.4379 7.00004 11C6.99992 12 8.00004 13 9.00004 13C10.9527 13 12 13 13 13ZM13 9H9.00004V11H13V9Z" fill="#3C3C3D"/>
<path fill-rule="evenodd" clip-rule="evenodd" d="M12.0001 20C13.0001 20 14.0001 19 14.0001 18C14.0001 16.4379 14.0001 17.5621 14.0001 16C14.0001 15 13.0001 14 12.0001 14C10.0474 14 9.95268 14 8.00006 14C7.00006 14 6 15 6.00006 16C6.00016 17.5621 6.00026 16.4379 6.00006 18C5.99994 19 7.00006 20 8.00006 20C9.95268 20 11.0001 20 12.0001 20ZM12.0001 16H8.00006V18H12.0001V16Z" fill="#3C3C3D"/>
<path d="M10 2C10 2 16 2 18 2C20.5 2 22 4 22 6C22 8 20.5 10 18 10C17.219 10 16 10 16 10V8C16 8 16.8285 8 18 8C19 8 20 7 20 6C20 5 19 4 18 4C17 4 10 4 10 4V2Z" fill="#3C3C3D"/>
<path d="M5.00006 18C5.00006 18 6.00006 18 4.00006 18C2.00006 18 0.000284787 16 8.02266e-05 14C-2.20537e-05 13 5.81728e-05 13.6796 5.81728e-05 13C5.81728e-05 11 2 9 4.00006 9C4.78111 9 6.00006 9 6.00006 9V11C6.00006 11 5.17163 11 4.00006 11C3.00006 11 2.00006 12 2.00006 13C2.00006 13.4297 2.00006 13 2.00006 14C2.00006 15 3.00006 16 4.00006 16C5.00006 16 5.00006 16 5.00006 16V18Z" fill="#3C3C3D"/>
</svg>
